<svg width="48" height="48" viewBox="0 0 48 48" fill="none" xmlns="http://www.w3.org/2000/svg">
  <defs>
    <!-- Vibrant modern gradient -->
    <linearGradient id="mainGradient" x1="0%" y1="0%" x2="100%" y2="100%">
      <stop offset="0%" style="stop-color:#6366f1;stop-opacity:1" />
      <stop offset="50%" style="stop-color:#8b5cf6;stop-opacity:1" />
      <stop offset="100%" style="stop-color:#a855f7;stop-opacity:1" />
    </linearGradient>
    
    <!-- Accent gradient -->
    <linearGradient id="accentGrad" x1="0%" y1="0%" x2="100%" y2="0%">
      <stop offset="0%" style="stop-color:#ec4899;stop-opacity:1" />
      <stop offset="100%" style="stop-color:#f97316;stop-opacity:1" />
    </linearGradient>
  </defs>
  
  <!-- Modern Stack Symbol - Three organized layers -->
  <g>
    <!-- Bottom Layer - Widest (Foundation) -->
    <rect x="8" y="30" width="32" height="8" rx="4" fill="url(#mainGradient)" opacity="0.4"/>
    
    <!-- Middle Layer - Medium (Processing) -->
    <rect x="12" y="20" width="24" height="8" rx="4" fill="url(#mainGradient)" opacity="0.7"/>
    
    <!-- Top Layer - Narrowest (Interface) -->
    <rect x="16" y="10" width="16" height="8" rx="4" fill="url(#mainGradient)"/>
  </g>
  
  <!-- Link Chain Symbol - Clear and prominent -->
  <g transform="translate(24, 6)">
    <!-- Left link -->
    <path d="M -6 0 A 3 3 0 0 1 -6 -6 L -2 -6" 
          stroke="url(#accentGrad)" 
          stroke-width="3" 
          stroke-linecap="round" 
          fill="none"/>
    
    <!-- Right link -->
    <path d="M 2 -6 L 6 -6 A 3 3 0 0 1 6 0" 
          stroke="url(#accentGrad)" 
          stroke-width="3" 
          stroke-linecap="round" 
          fill="none"/>
    
    <!-- Connection -->
    <line x1="-2" y1="-6" x2="2" y2="-6" 
          stroke="url(#accentGrad)" 
          stroke-width="3" 
          stroke-linecap="round"/>
    
    <!-- End points -->
    <circle cx="-6" cy="0" r="2" fill="#ec4899"/>
    <circle cx="6" cy="0" r="2" fill="#f97316"/>
  </g>
  
  <!-- Subtle connecting lines showing data flow -->
  <g opacity="0.2">
    <line x1="24" y1="18" x2="24" y2="28" stroke="#8b5cf6" stroke-width="1.5"/>
    <line x1="24" y1="28" x2="24" y2="38" stroke="#8b5cf6" stroke-width="1.5"/>
  </g>
</svg>
